<?xml version="1.0" encoding="UTF-8" standalone="no"?>
<svg
   version="1.1"
   id="svg2985"
   viewBox="82.992 45.607 987.72348 1092.518"
   width="1000"
   height="1000"
   sodipodi:docname="globa2.svg"
   inkscape:version="1.1.1 (3bf5ae0d25, 2021-09-20)"
   xmlns:inkscape="http://www.inkscape.org/namespaces/inkscape"
   xmlns:sodipodi="http://sodipodi.sourceforge.net/DTD/sodipodi-0.dtd"
   xmlns="http://www.w3.org/2000/svg"
   xmlns:svg="http://www.w3.org/2000/svg"
   xmlns:rdf="http://www.w3.org/1999/02/22-rdf-syntax-ns#"
   xmlns:cc="http://creativecommons.org/ns#"
   xmlns:dc="http://purl.org/dc/elements/1.1/">
  <defs
     id="defs2906" />
  <sodipodi:namedview
     id="namedview2904"
     pagecolor="#ffffff"
     bordercolor="#666666"
     borderopacity="1.0"
     inkscape:pageshadow="2"
     inkscape:pageopacity="0.0"
     inkscape:pagecheckerboard="0"
     showgrid="false"
     width="1000px"
     inkscape:zoom="0.74769877"
     inkscape:cx="496.18913"
     inkscape:cy="466.76551"
     inkscape:window-width="1920"
     inkscape:window-height="995"
     inkscape:window-x="0"
     inkscape:window-y="48"
     inkscape:window-maximized="1"
     inkscape:current-layer="svg2985" />
  <title
     id="title2">World Map</title>
  <style
     id="style_css_sheet"
     type="text/css"> 
/*
 * Below are Cascading Style Sheet (CSS) definitions in use in this file,
 * which allow easily changing how countries are displayed.
 *
 */

/*
 * Circles around small countries
 *
 * Change opacity to 1 to display all circles.
 *
 */
.circlexx
{
   opacity:0;
   fill:#e0e0e0;
   stroke:#000000;
   stroke-width:0.5;
}

/*
 * Smaller circles around French DOMs and Chinese SARs
 *
 * Change opacity to 1 to display all subnational circles.
 *
 */
.subxx
{
   opacity:0;
   stroke-width:0.3;
}


/*
 * Circles around small countries, but with no permanent residents 
 *
 * Change opacity to 1 to display all circles.
 *
 */
.noxx
{
   opacity:0;
   fill:#e0e0e0;
   stroke:#000000;
   stroke-width:0.5;
}

/*
 * land
 */
.landxx
{
   fill: #e0e0e0;
   stroke:#ffffff;
   stroke-width:0.5;
   fill-rule:evenodd;
}

/*
 * Styles for coastlines of islands with no borders
 */
.coastxx
{
   fill: #e0e0e0;
   stroke:#ffffff;
   stroke-width:0.3;
   fill-rule:evenodd;
}


/*
 * Styles for territories with limited or no recognition
 */
.limitxx
{
   fill: #e0e0e0;
   stroke:#ffffff;
   stroke-width:0;
   fill-rule:evenodd;
}

/*
 * Circles around small territories with limited or no recognition
 *
 * Change opacity to 1 to display all circles.
 *
 */
.unxx
{
   opacity:0;
   fill:#e0e0e0;
   stroke:#000000;
   stroke-width:0.3;
}


/*
 * Styles for territories without permanent population.
 */
.antxx
{
   fill: #e0e0e0;
   stroke:#ffffff;
   stroke-width:0;
   fill-rule:evenodd;
}

/*
 * Oceans and seas
 */
.oceanxx
{
   opacity: 1;
   color: #000000;
   fill:#ffffff;
   stroke:#000;
   stroke-width:0.5;
   stroke-miterlimit:1;
}

/*

 Reserved class names:

 .eu - for members of European Union
 .eaeu - for members of Euroasian Economical Union

*/



/*
 * Additional style rules
 *
 * The following are examples of colouring countries.  You can substitute these with your own styles to colour the countries on the map.
 *
 * Color a few countries:
 *
 * .gb, .au, .nc
 * {
 *    fill:       #ff0000;
 * }
 *
 * Color a few small country circles (and the countries):
 *
 * .ms, .ky
 * {
 *    opacity:    1;
 *    fill:       #ff0000;
 * }
 *
 */ 
  </style>
  <path
     id="sd"
     class="landxx sd"
     d="m 480.31346,305.79127 c -29.44418,5.73326 -83.33167,-2.95437 -97.76554,21.37975 36.11051,-3.26109 19.78594,28.95713 17.68077,40.82475 5.72099,44.15456 46.27002,-23.83836 78.23092,-16.70491 -2.86397,-12.67141 7.70938,-0.0439 9.86698,-10.45504 -15.5904,-0.37573 14.39163,-11.21109 16.97513,-22.85893 32.76691,-11.09684 -48.32588,-3.11304 -4.06669,-10.09469 -21.8768,-0.48239 -5.78118,-1.93427 -20.92157,-2.09093 z m -88.43886,1.24064 c -26.36957,0.21059 -58.29154,6.60748 -21.72494,5.86365 -23.42604,3.56509 -55.25581,20.36635 -12.60644,10.86594 7.00773,-8.74045 81.0976,-16.68383 34.33138,-16.72959 z m 384.07296,4.65909 c -15.84445,5.15941 19.12902,1.99984 0,0 z m 7.99229,3.17557 c -20.05859,3.91594 23.36936,3.70938 0,0 z m 15.20714,2.29283 c -7.8012,7.38781 19.75793,0.51999 0,0 z m 9.56196,5.35891 c -21.68154,11.87716 -80.08909,16.8539 -42.71175,34.55567 -15.88487,14.9658 -14.9875,-13.58296 -29.14922,-16.56387 -15.13623,24.20812 -60.09174,8.02223 -83.01632,27.52304 -31.29188,-8.45586 29.24025,-3.94731 -4.63164,-15.34585 -35.18816,-21.70141 -62.98961,12.54003 -87.52398,30.49834 13.49732,11.29618 41.70894,31.64585 41.35094,-4.06074 6.39814,-18.53124 20.11974,-13.64794 9.0315,1.03124 23.45244,10.46835 24.2888,2.18478 6.61426,15.67532 -19.15709,32.89583 -47.17133,-8.83758 -60.8306,26.38028 -24.14651,7.78762 -19.47096,9.45805 -12.51189,-9.41729 -4.38906,-42.664 -51.0586,20.80416 -16.6643,2.13425 2.36807,25.05957 18.90648,39.93979 -16.28337,44.82095 10.42149,35.70695 -18.3981,61.80996 -36.40685,91.94636 -10.79132,44.86287 30.98958,83.97475 74.29057,65.70352 46.14155,11.46863 36.6025,80.16929 38.60559,116.54286 -0.8732,41.82202 47.87718,83.72233 69.63909,30.05631 20.61537,-35.7402 35.25826,-65.36083 33.81617,-104.23279 11.01643,-21.34702 68.92788,-71.54784 12.21006,-66.90044 -18.67117,-13.75035 -42.15661,-61.17664 -35.69999,-78.26788 17.59891,25.098 29.53287,95.75775 70.98237,58.35303 24.38497,-10.96533 22.78958,-50.8267 -5.55408,-35.50535 -19.11421,-11.14589 -18.42781,-34.62137 3.69788,-13.65372 38.84461,9.77625 80.9277,18.7027 86.53433,65.58408 57.89736,-111.77693 85.0052,49.20396 111.01168,42.96663 -14.18925,-13.97044 -28.56392,-62.99862 0.005,-31.00368 39.29373,-7.88954 -22.28257,-57.56778 30.32849,-55.08498 39.27651,-20.76637 4.83483,-58.57226 -3.52179,-76.61172 20.86333,-5.61647 50.3279,42.8348 33.4314,0.65555 0.6769,-18.40778 36.7594,-36.58316 3.4122,-53.19651 -33.33529,-10.17491 -12.54051,-37.1742 14.1581,-27.48924 35.5752,-40.6392 13.6736,34.5445 47.3689,28.39882 -8.7755,-20.54804 -19.4069,-40.59978 12.6894,-38.97396 -3.0046,-11.4202 -20.4735,-19.78009 9.8091,-12.67653 1.3227,-10.55539 -58.2676,-20.38771 -81.9618,-16.54805 -46.358,-9.6979 -93.18271,-5.57013 -139.17381,-13.86195 -17.76131,-2.69307 -30.94793,4.15202 -24.70713,-8.41668 -9.33181,-2.89117 -19.29989,-2.13609 -28.6393,-5.01502 z m -543.78949,0.49707 c -24.52049,0.096 -20.02368,9.58644 0,0 z m 456.15994,1.68882 c -14.11177,-6.355 -44.93047,22.05639 -16.30803,21.54918 -25.18374,-13.54102 20.16531,-14.79402 16.30803,-21.54918 z m -441.08289,0.61453 c -27.66342,-3.30313 -32.07627,18.58691 0,0 z m 621.78467,2.04119 c 13.55967,10.08813 25.96024,0.10721 0,0 z m 7.13071,1.59262 0.82854,0.17998 z m 15.99944,0.47714 c 9.27682,7.8521 17.11144,-4.18026 0,0 z m -687.93676,3.38323 c -55.66158,14.70419 34.68738,7.78077 0,0 z m 71.34044,1.2513 c -34.13819,43.28355 -80.81704,11.52888 -124.81527,18.02859 -41.62224,-8.54889 -84.018105,-10.24189 -117.365718,16.60058 30.935973,-0.99467 -42.393675,15.34958 -8.675614,24.14053 -6.008657,8.41377 -44.725609,18.99521 -6.480506,6.08117 12.34652,-4.04553 34.928902,-14.55078 41.261993,-12.73954 59.234835,-13.90433 40.873805,59.16444 14.824745,84.19399 -4.24868,18.9605 29.71343,100.49901 17.4038,40.07035 14.96095,35.79971 33.66435,62.70346 74.53466,73.27874 21.83229,21.50676 63.93958,24.80434 34.60549,62.7118 -17.00219,47.78506 60.53243,66.84255 44.94141,115.83805 5.11418,34.29132 1.97603,95.21035 39.03523,106.03459 -5.5609,-31.3684 7.34226,-54.78716 18.30101,-78.29202 -22.85788,-33.09339 22.95539,9.23701 18.63967,-17.44338 14.5161,-33.67398 42.59761,-44.65323 45.22297,-86.36474 22.47774,-51.89814 -74.54006,-14.25124 -57.84155,-63.4031 -27.2962,-6.30259 -41.76305,-40.3799 -74.91258,-25.23511 -39.56249,2.01621 -70.95754,-18.15796 -56.9914,-44.32333 -11.75581,11.29338 -48.18115,7.03034 -31.29187,-23.21301 10.32759,-22.98957 59.2803,-27.37207 62.96598,2.95229 -0.71513,-40.47232 66.86065,-88.45065 82.60345,-82.9832 11.28684,-17.83789 -5.55388,-20.80396 -16.33764,-13.69701 25.29759,-9.34369 70.89905,-15.4383 41.71259,-46.23619 -18.5297,2.69356 -26.00303,-25.77191 -44.54137,1.07048 -7.08015,20.48543 -27.96785,40.23332 -30.26888,14.89646 -53.86895,-24.30504 62.33876,-52.08665 37.21714,-50.69415 -40.75352,3.19005 12.07402,-26.64682 -3.74774,-21.27284 z m -11.50954,0.2447 c -20.85986,-1.14622 -15.19897,19.17557 0,0 z m 623.78246,0.68893 c -11.04427,5.40449 30.98254,-0.55638 0,0 z m -592.41933,0.32055 c -39.68451,6.08883 8.51636,9.27865 8.58599,15.39005 38.52337,20.31969 -39.3153,10.01904 2.32947,23.67984 21.63989,6.68991 13.69052,-12.84533 30.29194,-13.47609 -9.13122,-17.3361 -36.9399,-25.79233 -49.11796,-19.72152 z m 12.5278,0.15539 c -6.48734,11.07531 27.0009,-5.86932 0,0 z m -73.4554,1.42597 c -19.111,2.81457 -28.21677,16.4083 -31.49474,11.89473 -21.82194,9.20967 58.10521,5.85278 31.49474,-11.89473 z m 769.2406,6.1181 c -9.0194,6.18674 20.9713,-1.71082 0,0 z m -755.57547,6.29995 c -17.61858,1.31149 9.81593,8.52978 0,0 z m 404.07229,1.23035 c -6.8043,6.44081 10.99705,-0.55085 0,0 z m -348.15198,0.21405 c -4.8105,1.88437 2.73266,0.93593 0,0 z m 0.53246,4.06948 c -15.72056,-1.83679 3.47035,8.3276 0,0 z m -128.76444,4.85459 c 7.44785,15.06624 -31.37442,-2.29427 0,0 z m 139.79813,1.06482 -0.35996,0.28753 z m 154.26518,0.82214 c -41.19992,-3.21866 2.32781,23.22912 2.39407,0.38393 z m -199.79715,2.26718 c -26.78599,12.82949 27.15028,8.77511 0,-1e-5 z m 1.19487,11.20804 c -9.76498,-2.57334 -2.19673,7.48358 0,0 z m 346.46297,0.19922 c 12.60424,7.81274 -0.35343,6.12806 0,0 z m -429.80087,0.082 c -20.79233,13.72607 -29.64656,0.80381 0,0 z m 305.68272,0.84026 c -13.64237,7.23948 14.03317,7.8686 0,0 z m -216.03407,0.96052 c -8.65867,0.1658 1.13454,6.03298 0,0 z m -41.46395,2.03543 -0.0345,0.28496 z m 310.14478,16.50598 c -10.52894,1.67074 -4.65361,7.31072 0,0 z m 313.51521,7.9785 c 8.75821,18.23787 -15.52248,23.31612 0,0 z m 109.56062,5.53537 c 5.1645,21.12646 41.9641,42.7724 11.9112,11.52597 -4.2502,-3.5585 -8.0643,-7.54966 -11.9112,-11.52597 z m -773.97232,2.14961 c 2.71985,17.21604 -8.81451,5.02352 0,0 z m 133.43112,9.31971 c -26.60952,17.9663 8.72472,22.20173 -1.5137,3.87541 z m 173.64685,10.56211 c 2.4024,4.59574 -5.04624,-0.34963 0,0 z m -284.88364,0.39715 c 20.19896,6.55511 17.99228,32.46569 2.75722,16.29335 -31.25772,22.86707 9.72147,-10.99601 -6.18649,-5.85376 -29.83471,-1.16238 -0.4976,-5.03812 3.42927,-10.43959 z m 105.95276,4.66087 c 2.46997,3.83951 1.26913,1.97285 0,0 z m 318.90483,2.68546 c -6.56207,15.06923 23.25528,34.2036 -12.05274,22.83544 -44.04993,2.05837 -14.45775,30.41577 8.78619,28.81363 -18.60484,32.77772 -56.22245,13.39135 -84.54059,10.8462 -8.56161,-31.73641 -37.23845,-11.16351 -59.7815,-14.79082 15.05567,-32.39592 55.59328,-41.22558 74.62401,-12.24621 0.11164,-17.21163 -28.23175,-35.59088 2.52044,-14.38503 14.7445,19.40947 16.92007,25.9475 26.65204,7.37682 28.95156,-37.21742 24.93871,-8.73828 43.79215,-28.45003 z m 40.87718,0.59728 c 15.43283,12.45852 17.73321,67.55071 -0.88469,29.34125 -4.0131,-10.56184 -21.85191,-25.61386 0.88469,-29.34125 z m 333.97042,6.72663 c -5.624,0.28557 -0.9281,7.6576 0,0 z m -23.278,0.11919 c -5.3433,28.68384 36.2256,7.7301 0,0 z m -742.77539,3.54399 c -21.52519,15.05408 -38.06393,10.8127 -5.70051,2.42215 1.90017,-0.80739 3.80035,-1.61476 5.70051,-2.42215 z m 760.05609,0.63575 c -0.5876,6.73016 -5.104,-0.13071 0,0 z m -313.78937,9.47906 0.12043,0.0213 z m -2.64416,0.19794 -0.30987,0.11713 z m 306.53783,3.24139 c 6.4543,21.35936 -39.883,48.37826 -3.6361,29.22346 24.5531,1.22347 15.314,-19.42995 3.6361,-29.22346 z m -459.63054,1.0948 c -12.27393,9.73585 9.0349,14.02977 0,0 z m 22.42757,12.6086 c -17.84028,-6.96076 -2.0996,15.31258 0,0 z m -3.24917,7.91301 c -12.42722,6.33221 12.52187,6.88399 0,0 z m -322.96322,2.99238 c -5.93717,0.88974 2.13324,4.1787 0,0 z m 355.6671,0.35884 c 3.4153,8.31163 16.19361,-3.42244 0,0 z m -321.32851,10.79244 c -12.53141,7.95492 12.05025,5.64291 0,0 z m -176.17029,30.63715 -0.68262,0.96907 z m 861.82216,3.40219 c -13.21341,12.0313 10.0321,15.65095 0,0 z m -734.93404,4.71124 c -11.86898,6.96254 11.91931,6.43199 0,0 z m 16.30509,5.8978 c -14.317,8.65101 13.84053,6.40868 0,0 z m 682.24423,11.74299 c -15.72457,0.017 5.03976,15.549 0,0 z m -654.78894,0.29016 c -21.43324,17.11727 38.87453,35.53447 0,0 z m -33.36839,0.47286 c -7.27118,24.172 32.56447,-6.67042 0,0 z m 727.16755,5.71224 c 0.3566,29.99931 20.1183,24.33027 3.9582,0.88498 z m -545.01393,7.97395 c -12.08441,9.07514 11.57165,4.93109 0,0 z m -133.1981,12.71183 c -21.86914,4.77363 10.36173,8.13194 0,0 z m -42.28821,0.54535 c -13.90347,7.3414 13.83434,6.47421 0,0 z m 722.67574,0.71031 c -2.6429,7.44763 12.2979,3.29015 0,0 z m -716.68552,0.12671 c -7.3382,8.03493 13.65995,11.48042 0,0 z m 25.62425,3.5474 c -13.8806,7.80632 13.84756,6.80203 0,0 z m 707.95957,0.54942 c -4.6295,15.38419 8.7296,5.04256 0,0 z m -10.858,2.64657 c -3.4099,12.643 10.0932,0.39694 0,0 z m -9.1532,2.36117 c -8.82093,10.0738 -3.83714,17.08635 0,0 z m 14.285,1.74975 c -8.4145,7.10544 7.3184,10.48421 0,0 z m -715.12221,0.049 -0.22425,0.36803 z m 723.96431,4.99456 c -28.27489,13.27899 19.9914,21.06684 0,0 z m -172.36901,0.003 c -6.52884,18.17387 16.40374,15.97382 0,0 z m -354.31803,3.27997 -0.0374,0.0128 z m 494.68663,8.85772 c -26.16178,7.72216 -37.08877,56.22973 -1.46755,42.03326 8.09717,-11.06797 12.68366,-31.58473 1.46755,-42.03326 z m -80.84807,5.87118 c 4.40909,23.41326 58.17266,68.99896 26.18113,20.16648 -7.16277,-8.42911 -15.87077,-15.90544 -26.18113,-20.16648 z m 113.02878,17.08245 c -43.44223,4.14875 -3.0573,44.72703 -12.8002,12.14979 -16.98455,-13.03418 18.2616,0.43948 12.8002,-12.14979 z m -450.4604,0.30344 c -14.36918,8.77682 13.08083,7.04519 0,0 z m 345.25446,0.59617 c -2.8665,4.51628 7.16428,2.34424 0,0 z m -244.14843,4.33113 c 12.19118,16.34499 -19.97048,10.90627 0,0 z m 378.11537,3.59514 c 2.416,30.21452 48.0259,38.9886 62.1388,38.57747 -9.7482,-38.2249 -40.0655,-19.20507 -62.1388,-38.57747 z m -11.5982,10.57985 c -19.5893,1.10144 14.3398,5.47774 0,0 z m -10.9805,1.112 c -8.6694,2.47824 7.5826,4.2239 0,0 z m 97.248,4.79839 c -18.716,3.03689 -11.0226,20.07213 0,0 z M 943.05059,668.033 c 12.05613,20.38041 44.78379,3.55633 7.01829,1.76406 l -3.33051,-1.44505 z m 29.28115,4.10522 c -8.42324,-5.24977 -1.32278,5.39196 0,0 z m 48.08566,3.19774 c -12.0347,5.4e-4 3.2537,3.88557 0,0 z m -43.12093,2.07978 c -9.84896,-1.31169 6.67925,6.55248 0,0 z m 28.90303,0.061 c -24.5299,-1.8427 0.1352,7.64973 0,0 z m -24.48795,0.4524 c -7.79852,2.0856 5.66393,4.8387 0,0 z m 36.62605,0.0649 c -25.5136,12.8074 13.6726,4.02498 0,0 z m 61.6614,10.78699 c 3.2444,27.51757 -31.1424,34.50521 -29.1156,4.90376 -35.2634,15.09563 -99.58024,34.07563 -90.29425,85.73007 3.52265,33.21467 65.43465,-19.25697 76.38665,10.10342 15.1638,53.34426 87.822,-18.32389 63.8303,-52.77506 -13.7746,-12.74997 -13.9021,-31.29396 -20.8071,-47.96219 z m -374.58769,2.2224 c -14.24311,7.3423 14.3389,7.17986 0,0 z m 20.35389,3.20891 c -23.36624,7.73557 -31.74423,79.41195 -5.44724,41.40892 4.96427,-12.92192 10.75337,-27.63106 5.44724,-41.40892 z m -14.97392,2.36432 c -8.92685,4.85352 8.92686,4.8534 0,0 z m -339.25165,48.49528 c -2.31086,0.83787 2.04968,1.3867 0,0 z m 677.68987,72.85629 c -17.0057,23.36963 28.6625,1.32683 0,0 z m -733.06625,39.60186 -0.50264,0.10057 z m 2.81247,10.32453 c -4.53574,19.03839 28.82809,6.44414 0,0 z"
     style="fill:#4d4d4d"
     sodipodi:nodetypes="cccccccccccccccccccccccccccccccccccccccccccccccccccccccccccccccccccccccccccccccccccccccccccccccccccccccccccccccccccccccccccccccccccccsssccccccccccccccccccccccccccccccccccccccccccccccccccccccccccccccccccccccccccccccccccccccccccccccccccccccccccccccccccccccccccccccccccccccccccccccccccccccccccccccccccccccccccccccccccccccccc">
    <title
       id="title6">Sudan</title>
  </path>
  <metadata
     id="metadata3723">
    <rdf:RDF>
      <cc:Work
         rdf:about="">
        <dc:title>World Map</dc:title>
      </cc:Work>
    </rdf:RDF>
  </metadata>
</svg>
