<?xml version="1.0" encoding="UTF-8" standalone="no"?>
<svg
   viewBox="0 0 300.00001 300.00001"
   version="1.1"
   id="svg53"
   sodipodi:docname="translator-symbolic.svg"
   width="300"
   height="300"
   inkscape:version="1.1.1 (3bf5ae0d25, 2021-09-20)"
   xmlns:inkscape="http://www.inkscape.org/namespaces/inkscape"
   xmlns:sodipodi="http://sodipodi.sourceforge.net/DTD/sodipodi-0.dtd"
   xmlns="http://www.w3.org/2000/svg"
   xmlns:svg="http://www.w3.org/2000/svg"
   xmlns:rdf="http://www.w3.org/1999/02/22-rdf-syntax-ns#"
   xmlns:cc="http://creativecommons.org/ns#"
   xmlns:dc="http://purl.org/dc/elements/1.1/">
  <sodipodi:namedview
     id="namedview55"
     pagecolor="#ffffff"
     bordercolor="#666666"
     borderopacity="1.0"
     inkscape:pageshadow="2"
     inkscape:pageopacity="0.0"
     inkscape:pagecheckerboard="0"
     showgrid="false"
     inkscape:snap-global="false"
     inkscape:zoom="1.0084227"
     inkscape:cx="-7.9331812"
     inkscape:cy="95.198174"
     inkscape:window-width="1920"
     inkscape:window-height="995"
     inkscape:window-x="0"
     inkscape:window-y="48"
     inkscape:window-maximized="1"
     inkscape:current-layer="svg53" />
  <defs
     id="defs45">
    <style
       id="style2">.cls-1{fill:#fff;}</style>
    <symbol
       id="Sticker_generic"
       viewBox="0 0 58.972 73.422">
      <path
         class="cls-1"
         d="M 8.415,54.63438 5.082,62.33457 H 3.32129 L 0,54.63438 h 1.9248 l 2.34278,5.5 2.376,-5.5 z"
         id="path4" />
      <path
         class="cls-1"
         d="m 9.62988,62.03184 a 2.90355,2.90355 0 0 1 -1.16113,-1.083 3.16982,3.16982 0 0 1 0,-3.14648 2.90355,2.90355 0 0 1 1.16113,-1.083 3.54322,3.54322 0 0 1 1.67774,-0.39063 3.51124,3.51124 0 0 1 1.67187,0.39063 2.90412,2.90412 0 0 1 1.1543,1.083 3.16982,3.16982 0 0 1 0,3.14648 2.90412,2.90412 0 0 1 -1.1543,1.083 3.51123,3.51123 0 0 1 -1.67187,0.39062 3.54321,3.54321 0 0 1 -1.67774,-0.39062 z M 12.39062,60.569 a 1.892,1.892 0 0 0 0,-2.38672 1.42914,1.42914 0 0 0 -1.083,-0.44531 1.44873,1.44873 0 0 0 -1.08985,0.44531 1.87528,1.87528 0 0 0 0,2.38672 1.44873,1.44873 0 0 0 1.08985,0.44531 1.42914,1.42914 0 0 0 1.083,-0.44531 z"
         id="path6" />
      <path
         class="cls-1"
         d="m 15.69629,54.17246 h 1.71582 v 8.16211 h -1.71582 z"
         id="path8" />
      <path
         class="cls-1"
         d="m 24.96973,56.41661 v 5.918 H 23.3418 v -0.7041 a 2.27827,2.27827 0 0 1 -0.81446,0.58887 2.5552,2.5552 0 0 1 -1.02246,0.20312 2.51888,2.51888 0 0 1 -1.84765,-0.67089 2.674,2.674 0 0 1 -0.68262,-1.99121 v -3.34379 h 1.71582 v 3.09082 q 0,1.42968 1.19922,1.42968 a 1.2852,1.2852 0 0 0 0.99023,-0.40136 1.6942,1.6942 0 0 0 0.374,-1.19336 v -2.92578 z"
         id="path10" />
      <path
         class="cls-1"
         d="m 31.9375,56.98887 a 2.616,2.616 0 0 1 0.67676,1.958 v 3.38769 h -1.71582 v -3.124 a 1.54663,1.54663 0 0 0 -0.30762,-1.05078 1.13377,1.13377 0 0 0 -0.8916,-0.34668 1.36726,1.36726 0 0 0 -1.03418,0.40234 1.66063,1.66063 0 0 0 -0.38477,1.19336 v 2.92578 h -1.71582 v -5.918 h 1.63867 V 57.11 a 2.26976,2.26976 0 0 1 0.84766,-0.57812 2.94469,2.94469 0 0 1 1.11035,-0.20313 2.43205,2.43205 0 0 1 1.77637,0.66012 z"
         id="path12" />
      <path
         class="cls-1"
         d="m 37.98242,62.04844 a 1.74516,1.74516 0 0 1 -0.62207,0.28027 3.1293,3.1293 0 0 1 -0.77539,0.09375 2.30554,2.30554 0 0 1 -1.63379,-0.53906 2.06241,2.06241 0 0 1 -0.57715,-1.584 V 57.86875 H 33.46094 V 56.54844 H 34.374 V 55.108 h 1.71582 v 1.44043 h 1.47461 v 1.32031 h -1.47459 v 2.40918 a 0.80936,0.80936 0 0 0 0.19239,0.57715 0.71381,0.71381 0 0 0 0.54492,0.20313 1.106,1.106 0 0 0 0.69336,-0.21973 z"
         id="path14" />
      <path
         class="cls-1"
         d="m 44.52734,59.86 h -4.47656 a 1.38929,1.38929 0 0 0 0.57227,0.86817 1.88959,1.88959 0 0 0 1.12207,0.31933 2.26932,2.26932 0 0 0 0.81933,-0.13769 1.965,1.965 0 0 0 0.665,-0.43457 l 0.91309,0.99023 a 3.06971,3.06971 0 0 1 -2.44238,0.957 3.85774,3.85774 0 0 1 -1.77051,-0.39062 2.86144,2.86144 0 0 1 -1.18848,-1.083 2.98859,2.98859 0 0 1 -0.418,-1.57324 3.02145,3.02145 0 0 1 0.41309,-1.56738 2.87928,2.87928 0 0 1 1.13281,-1.08887 3.50728,3.50728 0 0 1 3.18457,-0.0166 2.72922,2.72922 0 0 1 1.10554,1.07224 3.20085,3.20085 0 0 1 0.40137,1.623 c 0,0.02154 -0.01075,0.17583 -0.03321,0.462 z M 40.5127,57.95664 a 1.40525,1.40525 0 0 0 -0.48438,0.90235 h 2.915 a 1.41917,1.41917 0 0 0 -0.4834,-0.89649 1.44938,1.44938 0 0 0 -0.96875,-0.33593 1.4774,1.4774 0 0 0 -0.97847,0.33007 z"
         id="path16" />
      <path
         class="cls-1"
         d="m 51.46777,59.86 h -4.47656 a 1.38929,1.38929 0 0 0 0.57227,0.86817 1.88957,1.88957 0 0 0 1.12207,0.31933 2.26932,2.26932 0 0 0 0.81933,-0.13769 1.965,1.965 0 0 0 0.665,-0.43457 l 0.91309,0.99023 a 3.06972,3.06972 0 0 1 -2.44239,0.957 3.85773,3.85773 0 0 1 -1.7705,-0.39062 2.86144,2.86144 0 0 1 -1.18848,-1.083 2.98859,2.98859 0 0 1 -0.418,-1.57324 3.02145,3.02145 0 0 1 0.41309,-1.56738 2.87928,2.87928 0 0 1 1.13281,-1.08887 3.50728,3.50728 0 0 1 3.18457,-0.0166 2.72922,2.72922 0 0 1 1.10554,1.07224 3.20085,3.20085 0 0 1 0.40137,1.623 c 2e-5,0.02154 -0.01075,0.17583 -0.03321,0.462 z m -4.01465,-1.90332 a 1.40528,1.40528 0 0 0 -0.48437,0.90235 h 2.915 a 1.41917,1.41917 0 0 0 -0.4834,-0.89649 1.44938,1.44938 0 0 0 -0.96875,-0.33593 1.47745,1.47745 0 0 0 -0.97848,0.33003 z"
         id="path18" />
      <path
         class="cls-1"
         d="m 55.11523,56.54844 a 3.08007,3.08007 0 0 1 1.20411,-0.21973 v 1.584 c -0.19043,-0.01465 -0.31836,-0.02246 -0.38477,-0.02246 a 1.57348,1.57348 0 0 0 -1.15527,0.41308 1.6675,1.6675 0 0 0 -0.418,1.23731 v 2.79394 h -1.71579 v -5.918 h 1.63867 v 0.78125 a 1.90522,1.90522 0 0 1 0.83105,-0.64939 z"
         id="path20" />
      <path
         class="cls-1"
         d="M 3.31055,67.08653 H 0.84668 v -1.45215 h 6.71 v 1.45215 H 5.09277 v 6.248 H 3.31055 Z"
         id="path22" />
      <path
         class="cls-1"
         d="m 10.73047,67.54844 a 3.08,3.08 0 0 1 1.2041,-0.21973 v 1.584 C 11.74414,68.89806 11.61621,68.89025 11.5498,68.89025 a 1.5735,1.5735 0 0 0 -1.15527,0.41308 1.6675,1.6675 0 0 0 -0.418,1.23731 v 2.79394 H 8.26074 v -5.918 h 1.63867 v 0.78125 a 1.90525,1.90525 0 0 1 0.83106,-0.64939 z"
         id="path24" />
      <path
         class="cls-1"
         d="m 17.42383,67.983 a 2.5059,2.5059 0 0 1 0.7373,1.97461 v 3.37695 h -1.60644 v -0.7373 A 1.91,1.91 0 0 1 14.75098,73.42245 2.81071,2.81071 0 0 1 13.56836,73.19199 1.76292,1.76292 0 0 1 12.80371,72.55331 1.65937,1.65937 0 0 1 12.54,71.6295 a 1.5424,1.5424 0 0 1 0.62109,-1.29786 3.16775,3.16775 0 0 1 1.91992,-0.47265 h 1.36329 a 1.09515,1.09515 0 0 0 -0.34082,-0.86426 1.50428,1.50428 0 0 0 -1.02247,-0.30176 2.967,2.967 0 0 0 -0.92968,0.14844 2.44354,2.44354 0 0 0 -0.77539,0.40137 l -0.61621,-1.19922 a 3.72216,3.72216 0 0 1 1.16015,-0.52832 5.22623,5.22623 0 0 1 1.3916,-0.18653 3.079,3.079 0 0 1 2.11235,0.65429 z m -1.46289,4.08106 a 1.11071,1.11071 0 0 0 0.4834,-0.59961 V 70.86 h -1.17676 q -1.05615,0 -1.05567,0.69239 a 0.61465,0.61465 0 0 0 0.25879,0.52246 1.15784,1.15784 0 0 0 0.709,0.19238 1.49589,1.49589 0 0 0 0.78124,-0.20316 z"
         id="path26" />
      <path
         class="cls-1"
         d="m 25.085,67.98887 a 2.616,2.616 0 0 1 0.67676,1.958 v 3.38769 H 24.0459 v -3.124 a 1.54663,1.54663 0 0 0 -0.30762,-1.05078 1.13377,1.13377 0 0 0 -0.8916,-0.34668 1.36726,1.36726 0 0 0 -1.03418,0.40234 1.66063,1.66063 0 0 0 -0.38477,1.19336 v 2.92578 h -1.71582 v -5.918 h 1.63868 V 68.11 a 2.26964,2.26964 0 0 1 0.84765,-0.57812 2.94469,2.94469 0 0 1 1.11035,-0.20313 2.432,2.432 0 0 1 1.77641,0.66012 z"
         id="path28" />
      <path
         class="cls-1"
         d="m 27.8623,73.24082 a 3.77507,3.77507 0 0 1 -1.12207,-0.45605 l 0.57227,-1.23242 a 3.59014,3.59014 0 0 0 0.957,0.41308 4.00306,4.00306 0 0 0 1.09961,0.15918 q 1.08984,0 1.08984,-0.53906 a 0.382,0.382 0 0 0 -0.29785,-0.36328 4.35812,4.35812 0 0 0 -0.91308,-0.18652 8.86732,8.86732 0 0 1 -1.19825,-0.25293 1.86651,1.86651 0 0 1 -0.81933,-0.50586 1.43776,1.43776 0 0 1 -0.34668,-1.03418 1.619,1.619 0 0 1 0.32422,-0.9961 2.08475,2.08475 0 0 1 0.94629,-0.67578 4.04018,4.04018 0 0 1 1.46777,-0.24219 5.75841,5.75841 0 0 1 1.249,0.1377 3.50247,3.50247 0 0 1 1.02832,0.37891 L 31.32715,69.067 a 3.40809,3.40809 0 0 0 -1.70508,-0.44043 1.73162,1.73162 0 0 0 -0.82422,0.15429 0.45219,0.45219 0 0 0 -0.27539,0.39551 0.39222,0.39222 0 0 0 0.29688,0.38477 5.143,5.143 0 0 0 0.94628,0.209 10.17075,10.17075 0 0 1 1.1875,0.25879 1.78535,1.78535 0 0 1 0.80372,0.501 1.42165,1.42165 0 0 1 0.34082,1.01172 1.56039,1.56039 0 0 1 -0.33008,0.97851 2.10187,2.10187 0 0 1 -0.96289,0.666 4.29739,4.29739 0 0 1 -1.501,0.23632 5.75058,5.75058 0 0 1 -1.44139,-0.18166 z"
         id="path30" />
      <path
         class="cls-1"
         d="m 33.15332,65.17246 h 1.71582 v 8.16211 h -1.71582 z"
         id="path32" />
      <path
         class="cls-1"
         d="m 40.96387,67.983 a 2.5059,2.5059 0 0 1 0.7373,1.97461 v 3.37695 h -1.60644 v -0.7373 A 1.91,1.91 0 0 1 38.29102,73.42245 2.81071,2.81071 0 0 1 37.1084,73.192 1.76286,1.76286 0 0 1 36.34375,72.55332 1.65937,1.65937 0 0 1 36.08008,71.6295 a 1.5424,1.5424 0 0 1 0.62109,-1.29786 3.16773,3.16773 0 0 1 1.91992,-0.47265 h 1.36329 a 1.09512,1.09512 0 0 0 -0.34083,-0.86426 1.50424,1.50424 0 0 0 -1.02246,-0.30176 2.967,2.967 0 0 0 -0.92968,0.14844 2.44354,2.44354 0 0 0 -0.77539,0.40137 L 36.2998,68.04356 A 3.72233,3.72233 0 0 1 37.46,67.51524 5.22623,5.22623 0 0 1 38.8516,67.32871 3.079,3.079 0 0 1 40.96387,67.983 Z M 39.501,72.06407 a 1.11071,1.11071 0 0 0 0.4834,-0.59961 V 70.86 h -1.17678 q -1.05615,0 -1.05567,0.69239 a 0.61465,0.61465 0 0 0 0.25879,0.52246 1.15784,1.15784 0 0 0 0.709,0.19238 1.49589,1.49589 0 0 0 0.78126,-0.20316 z"
         id="path34" />
      <path
         class="cls-1"
         d="m 47.06836,73.04844 a 1.74532,1.74532 0 0 1 -0.62207,0.28027 3.12936,3.12936 0 0 1 -0.77539,0.09375 2.30554,2.30554 0 0 1 -1.63379,-0.53906 2.06237,2.06237 0 0 1 -0.57715,-1.584 V 68.86875 H 42.54688 V 67.54844 H 43.46 V 66.108 h 1.71582 v 1.44043 h 1.47461 v 1.32031 h -1.47465 v 2.40918 a 0.80936,0.80936 0 0 0 0.19238,0.57715 0.71383,0.71383 0 0 0 0.54493,0.20313 1.106,1.106 0 0 0 0.69336,-0.21973 z"
         id="path36" />
      <path
         class="cls-1"
         d="m 48.98828,73.03184 a 2.90348,2.90348 0 0 1 -1.16113,-1.083 3.16982,3.16982 0 0 1 0,-3.14648 2.90348,2.90348 0 0 1 1.16113,-1.083 3.78562,3.78562 0 0 1 3.34961,0 2.90412,2.90412 0 0 1 1.1543,1.083 3.16982,3.16982 0 0 1 0,3.14648 2.90412,2.90412 0 0 1 -1.1543,1.083 3.78571,3.78571 0 0 1 -3.34961,0 z M 51.749,71.569 a 1.892,1.892 0 0 0 0,-2.38672 1.42914,1.42914 0 0 0 -1.083,-0.44531 1.44871,1.44871 0 0 0 -1.08985,0.44531 1.87528,1.87528 0 0 0 0,2.38672 1.44871,1.44871 0 0 0 1.08985,0.44531 1.42914,1.42914 0 0 0 1.083,-0.44531 z"
         id="path38" />
      <path
         class="cls-1"
         d="m 57.52441,67.54844 a 3.08007,3.08007 0 0 1 1.20411,-0.21973 v 1.584 c -0.19043,-0.01465 -0.31836,-0.02246 -0.38477,-0.02246 a 1.57348,1.57348 0 0 0 -1.15527,0.41308 1.6675,1.6675 0 0 0 -0.418,1.23731 v 2.79394 h -1.71579 v -5.918 h 1.63867 v 0.78125 a 1.90522,1.90522 0 0 1 0.83105,-0.64939 z"
         id="path40" />
      <path
         class="cls-1"
         d="m 58.97192,46.59585 h -4.19363 a 1.7765,1.7765 0 0 1 -1.1649,-0.34947 2.3591,2.3591 0 0 1 -0.66981,-0.9028 L 50.2352,37.85913 H 35.674 l -2.91224,7.39709 a 2.24242,2.24242 0 0 1 -0.64069,0.87367 1.71824,1.71824 0 0 1 -1.1649,0.40771 h -4.0189 L 40.188,13.1342 h 5.5041 z M 48.69171,34.04409 44.09037,21.8418 a 33.84085,33.84085 0 0 1 -1.13578,-3.61117 q -0.2621,1.07752 -0.55332,2.00944 L 41.848,21.87093 37.24661,34.07322 Z M 30.34459,29.44275 A 39.111,39.111 0 0 1 21.87,25.33649 33.3742,33.3742 0 0 0 30.0534,9.69776 H 35.674 V 5.82448 H 22.01559 A 11.6494,11.6494 0 0 0 21.43314,4.19363 C 20.7342,2.30067 19.94789,0 19.94789,0 l -4.281,1.45612 c 0,0 1.16491,2.59188 1.74736,4.36836 H 0.72711 v 3.87328 h 6.26132 a 32.70447,32.70447 0 0 0 8.29988,15.63873 50.06112,50.06112 0 0 1 -14.5612,6.1157 q 1.63085,2.388 2.53365,4.0189 A 67.79686,67.79686 0 0 0 18.46265,28.16136 45.54771,45.54771 0 0 0 28.83023,33.316 Z m -19.046,-19.745 h 14.2991 a 23.61823,23.61823 0 0 1 -7.135,12.95947 26.53053,26.53053 0 0 1 -7.16415,-12.95946 z"
         id="path42" />
    </symbol>
  </defs>
  <title
     id="title47">DesignB_VolunteerTranslator</title>
  <path
     id="RGB"
     style="stroke-width:2.0277"
     d="M 150 4.0058594 L 23.564453 77.001953 L 23.564453 222.99805 L 150 295.99414 L 276.43555 222.99805 L 276.43555 77.001953 L 150 4.0058594 z M 124.32422 82.435547 C 127.48901 87.393715 131.07974 94.14742 132.55664 98.578125 L 118.91406 101.32031 C 117.64814 96.995098 114.27026 89.928919 111.10547 84.759766 L 124.32422 82.435547 z M 77.275391 101.5332 L 171.79883 101.5332 L 171.79883 114.33008 L 155.23438 114.33008 C 149.22127 130.99797 145.94383 139.19087 135.39453 150.05664 C 139.46459 153.49769 143.26413 156.01502 147.20508 158.02539 L 142.66016 170.50391 C 136.03325 167.65161 129.99818 164.13296 124.53906 159.21484 C 112.72386 169.55315 98.16613 173.58271 80.654297 179.17383 C 79.704859 177.27496 77.383174 168.59415 75.800781 166.80078 C 93.20712 161.84261 102.24541 159.76199 113.74414 150.05664 C 102.87836 138.87439 99.640076 130.25952 93.521484 114.33008 L 77.275391 114.33008 L 77.275391 101.5332 z M 106.74023 114.33008 C 112.22586 127.72769 114.72624 132.87468 124.64258 142.79102 C 134.03145 133.29665 136.0027 128.57163 141.27734 114.33008 L 106.74023 114.33008 z M 167.45703 118.75586 L 187.26172 118.75586 L 224.19922 217.56445 C 224.19922 217.56445 214.82363 216.73504 208.83398 212.4668 C 202.84431 208.19859 198.41602 191.82227 198.41602 191.82227 L 156.14453 191.82227 C 156.14453 191.82227 151.85727 208.18685 145.88672 212.4668 C 139.91617 216.74679 130.52148 217.56445 130.52148 217.56445 L 167.45703 118.75586 z M 177.31836 130.53711 L 160.10156 181.09961 L 194.5332 181.09961 L 177.31836 130.53711 z " />
  <g
     aria-label="A"
     transform="matrix(1.0785723,0,0,0.88313607,-21.213835,-21.233807)"
     id="text19230"
     style="font-size:60.2247px;line-height:1.25;letter-spacing:0px;word-spacing:0px;stroke-width:1.50561" />
  <metadata
     id="metadata50334">
    <rdf:RDF>
      <cc:Work
         rdf:about="">
        <dc:title>DesignB_VolunteerTranslator</dc:title>
      </cc:Work>
    </rdf:RDF>
  </metadata>
</svg>
